<svg width="20" height="20" viewBox="0 0 20 20" fill="none" xmlns="http://www.w3.org/2000/svg">
<path d="M15.1996 7.47931L14.4047 7.56953L15.1996 7.47931ZM15.5722 10.7627L16.3671 10.6725L15.5722 10.7627ZM4.42771 10.7627L3.63281 10.6725H3.63281L4.42771 10.7627ZM4.80037 7.47931L5.59526 7.56953L4.80037 7.47931ZM3.70647 12.3934L3.09729 11.8749H3.09729L3.70647 12.3934ZM16.2935 12.3934L15.6843 12.912H15.6843L16.2935 12.3934ZM11.8916 3.64471H11.0916C11.0916 3.98666 11.3089 4.29081 11.6325 4.40157L11.8916 3.64471ZM8.10836 3.64471L8.3675 4.40157C8.69102 4.29081 8.90836 3.98666 8.90836 3.64471H8.10836ZM13.2491 16.9474C13.4042 16.5337 13.1945 16.0726 12.7807 15.9175C12.367 15.7625 11.9059 15.9722 11.7509 16.3859L13.2491 16.9474ZM8.2491 16.3859C8.09404 15.9722 7.63296 15.7625 7.21923 15.9175C6.8055 16.0726 6.59581 16.5337 6.75086 16.9474L8.2491 16.3859ZM14.8143 14.2H5.18566V15.8H14.8143V14.2ZM14.4047 7.56953L14.7774 10.8529L16.3671 10.6725L15.9945 7.38909L14.4047 7.56953ZM5.22261 10.8529L5.59526 7.56953L4.00547 7.38909L3.63281 10.6725L5.22261 10.8529ZM4.31565 12.912C4.81813 12.3217 5.13664 11.6103 5.22261 10.8529L3.63281 10.6725C3.58454 11.0978 3.40423 11.5143 3.09729 11.8749L4.31565 12.912ZM14.7774 10.8529C14.8633 11.6104 15.1818 12.3217 15.6843 12.912L16.9027 11.8749C16.5957 11.5143 16.4154 11.0978 16.3671 10.6725L14.7774 10.8529ZM5.18566 14.2C4.70026 14.2 4.37356 13.9617 4.22765 13.7046C4.08963 13.4614 4.08976 13.1773 4.31565 12.912L3.09729 11.8749C2.40898 12.6835 2.38689 13.7027 2.8361 14.4943C3.27742 15.272 4.14741 15.8 5.18566 15.8V14.2ZM14.8143 15.8C15.8526 15.8 16.7225 15.272 17.1639 14.4943C17.6131 13.7027 17.591 12.6835 16.9027 11.8749L15.6843 12.912C15.9102 13.1773 15.9103 13.4614 15.7723 13.7046C15.6264 13.9617 15.2997 14.2 14.8143 14.2V15.8ZM12.6916 3.64471V3.55828H11.0916V3.64471H12.6916ZM15.9945 7.38909C15.7529 5.26045 14.1764 3.58139 12.1507 2.88784L11.6325 4.40157C13.1775 4.93058 14.2444 6.15725 14.4047 7.56953L15.9945 7.38909ZM8.90836 3.64471V3.55828H7.30836V3.64471H8.90836ZM5.59526 7.56953C5.75555 6.15725 6.82246 4.93058 8.3675 4.40157L7.84922 2.88784C5.8236 3.58139 4.24707 5.26045 4.00547 7.38909L5.59526 7.56953ZM9.99998 2.46666C10.6029 2.46666 11.0916 2.95539 11.0916 3.55828H12.6916C12.6916 2.07174 11.4865 0.866656 9.99998 0.866656V2.46666ZM9.99998 0.866656C8.51344 0.866656 7.30836 2.07174 7.30836 3.55828H8.90836C8.90836 2.95539 9.39709 2.46666 9.99998 2.46666V0.866656ZM11.7509 16.3859C11.5085 17.0325 10.8337 17.5333 9.99998 17.5333V19.1333C11.4746 19.1333 12.7636 18.2428 13.2491 16.9474L11.7509 16.3859ZM9.99998 17.5333C9.16627 17.5333 8.49144 17.0325 8.2491 16.3859L6.75086 16.9474C7.23633 18.2428 8.52531 19.1333 9.99998 19.1333V17.5333Z" fill="#292D32"/>
</svg>
