<svg width="20" height="20" viewBox="0 0 20 20" fill="none" xmlns="http://www.w3.org/2000/svg">
<g clip-path="url(#clip0_4371_9041)">
<path d="M11 5.09091C11 4.53863 10.5523 4.09091 10 4.09091C9.44771 4.09091 9 4.53863 9 5.09091V10C9 10.5523 9.44771 11 10 11H14.9091C15.4614 11 15.9091 10.5523 15.9091 10C15.9091 9.44772 15.4614 9 14.9091 9H11V5.09091Z" fill="#A6A6A6"/>
<path fill-rule="evenodd" clip-rule="evenodd" d="M10 0C4.47715 0 0 4.47715 0 10C0 15.5228 4.47715 20 10 20C15.5228 20 20 15.5228 20 10C20 4.47715 15.5228 0 10 0ZM2 10C2 5.58172 5.58172 2 10 2C14.4183 2 18 5.58172 18 10C18 14.4183 14.4183 18 10 18C5.58172 18 2 14.4183 2 10Z" fill="#A6A6A6"/>
</g>
<defs>
<clipPath id="clip0_4371_9041">
<rect width="20" height="20" fill="white"/>
</clipPath>
</defs>
</svg>
