<svg width="187" height="41" viewBox="0 0 187 41" fill="none" xmlns="http://www.w3.org/2000/svg">
<path fill-rule="evenodd" clip-rule="evenodd" d="M89.8364 32.2626C89.8364 31.4035 89.8832 30.6147 89.9768 29.8962C89.9925 29.7903 90.0092 29.6832 90.027 29.575C90.2248 28.3658 91.3004 27.5298 92.5154 27.5298H93.2204C94.2852 27.5298 95.1483 28.4004 95.1483 29.4744C95.1483 30.5522 95.2107 31.505 95.3355 32.3329C95.476 33.1607 95.6944 33.8636 95.9908 34.4415C96.3028 35.0038 96.7084 35.4334 97.2076 35.7301C97.7224 36.0113 98.3465 36.1519 99.0797 36.1519C100.234 36.1519 101.116 35.8395 101.724 35.2147C102.332 34.5743 102.637 33.6449 102.637 32.4266C102.637 31.8018 102.59 31.2317 102.496 30.7162C102.418 30.1851 102.27 29.6619 102.052 29.1464C101.849 28.631 101.568 28.0921 101.209 27.5298C100.85 26.9519 100.39 26.3114 99.8285 25.6086L93.5103 18.0877C92.387 16.6506 91.5212 15.2058 90.9128 13.7532C90.3044 12.2849 90.0002 10.7229 90.0002 9.06726C90.0002 7.73958 90.203 6.52124 90.6086 5.41224C91.0298 4.30324 91.6304 3.35043 92.4104 2.55383C93.1905 1.7416 94.1499 1.11681 95.2887 0.679458C96.4432 0.226486 97.7458 0 99.1967 0C100.96 0 102.426 0.249916 103.596 0.749747C104.782 1.24958 105.726 1.90561 106.428 2.71783C107.13 3.53006 107.621 4.44382 107.902 5.4591C108.198 6.45876 108.346 7.46623 108.346 8.48152C108.346 9.3406 108.276 10.1372 108.136 10.8713C108.119 10.9692 108.101 11.0684 108.084 11.1692C107.868 12.3872 106.807 13.2612 105.58 13.2612H104.892C103.853 13.2612 103.011 12.4115 103.011 11.3634C103.011 9.23907 102.707 7.61462 102.098 6.49C101.49 5.34976 100.499 4.77964 99.1265 4.77964C97.9876 4.77964 97.1374 5.09984 96.5758 5.74025C96.0142 6.36504 95.7334 7.20851 95.7334 8.27065C95.7334 8.83296 95.7724 9.3406 95.8504 9.79357C95.944 10.2465 96.0688 10.6683 96.2248 11.0588C96.3964 11.4336 96.5992 11.8007 96.8332 12.16C97.0672 12.5192 97.3324 12.8941 97.6288 13.2846L104.672 21.813C105.952 23.4843 106.935 25.0931 107.621 26.6395C108.307 28.1702 108.651 29.7946 108.651 31.5128C108.651 32.9342 108.424 34.215 107.972 35.3553C107.535 36.4955 106.903 37.4639 106.077 38.2605C105.25 39.0572 104.251 39.6741 103.081 40.1115C101.911 40.5332 100.593 40.7441 99.1265 40.7441C97.3168 40.7441 95.8114 40.502 94.6101 40.0178C93.4245 39.5336 92.4728 38.8931 91.7552 38.0965C91.0532 37.2999 90.554 36.394 90.2576 35.3787C89.9768 34.3634 89.8364 33.3247 89.8364 32.2626ZM153.51 40.5566C154.243 40.666 154.921 40.7207 155.546 40.7207C158.291 40.705 160.397 39.9319 161.864 38.4011C163.33 36.8704 164.063 34.4962 164.063 31.2785V30.3737C164.063 28.8289 162.822 27.5766 161.29 27.5766C159.759 27.5766 158.517 28.8289 158.517 30.3737V31.4894C158.517 32.286 158.432 32.9811 158.26 33.5746C158.104 34.1526 157.886 34.6368 157.605 35.0273C157.34 35.4021 157.028 35.6833 156.669 35.8707C156.31 36.0425 155.936 36.1285 155.546 36.1285C154.937 36.1285 154.414 36.0269 153.978 35.8239C153.556 35.6052 153.213 35.2459 152.948 34.7461C152.683 34.2463 152.488 33.5824 152.363 32.7546C152.254 31.9267 152.199 30.888 152.199 29.6385V11.3634C152.199 10.0825 152.269 9.01259 152.41 8.1535C152.566 7.29442 152.784 6.60715 153.065 6.0917C153.346 5.56063 153.697 5.18575 154.118 4.96708C154.539 4.7484 155.031 4.63906 155.592 4.63906C156.528 4.63906 157.238 5.18575 157.722 6.27913C158.205 7.37252 158.447 9.0204 158.447 11.2228C158.447 12.3485 159.352 13.2612 160.468 13.2612H161.145C162.433 13.2612 163.564 12.345 163.715 11.0548C163.722 10.9931 163.729 10.9319 163.736 10.8713C163.829 10.1372 163.876 9.3406 163.876 8.48152C163.876 7.32566 163.736 6.23227 163.455 5.20137C163.19 4.17047 162.73 3.27233 162.074 2.50697C161.435 1.72598 160.577 1.11681 159.5 0.679458C158.439 0.226486 157.113 0 155.522 0C154.914 0 154.251 0.0468592 153.533 0.140578C152.831 0.234296 152.121 0.437353 151.404 0.749747C150.686 1.04652 149.992 1.48387 149.321 2.06181C148.65 2.63974 148.057 3.42072 147.542 4.40477C147.028 5.37319 146.614 6.57591 146.302 8.01292C145.99 9.43432 145.834 11.1525 145.834 13.1674V27.3423C145.834 29.3417 145.982 31.0677 146.279 32.5203C146.591 33.9573 146.996 35.1678 147.496 36.1519C148.01 37.1359 148.595 37.9325 149.251 38.5417C149.922 39.1352 150.616 39.596 151.333 39.924C152.067 40.2521 152.792 40.4629 153.51 40.5566ZM176.725 0.351973C174.703 0.351973 172.969 1.80603 172.6 3.81076L166.52 36.8156C166.18 38.6636 167.586 40.3697 169.449 40.3697C170.926 40.3697 172.18 39.2785 172.397 37.8049L172.546 36.785C172.849 34.7255 174.602 33.2003 176.666 33.2003H176.778C178.847 33.2003 180.607 34.7222 180.924 36.785L181.084 37.8277C181.308 39.2905 182.557 40.3697 184.024 40.3697C185.886 40.3697 187.29 38.6649 186.949 36.819L180.849 3.80838C180.479 1.80476 178.745 0.351973 176.725 0.351973ZM179.258 25.6887C179.476 27.2423 178.281 28.6315 176.725 28.6315C175.168 28.6315 173.973 27.2403 174.193 25.6858L176.588 8.82135C176.599 8.74764 176.661 8.69291 176.735 8.69291C176.809 8.69291 176.872 8.74774 176.882 8.82152L179.258 25.6887ZM130.366 8.37712C130.366 6.58468 128.926 5.13161 127.149 5.13161H126.3C124.992 5.13161 123.931 4.06165 123.931 2.74179C123.931 1.42193 124.992 0.351973 126.3 0.351973H140.47C141.778 0.351973 142.839 1.42193 142.839 2.74179C142.839 4.06165 141.778 5.13161 140.47 5.13161H139.633C137.862 5.13161 136.427 6.57939 136.427 8.36532V37.3131C136.427 39.0012 135.07 40.3697 133.397 40.3697C131.723 40.3697 130.366 39.0012 130.366 37.3131V8.37712ZM116.782 0.351973C115.109 0.351973 113.752 1.72049 113.752 3.40865V37.3131C113.752 39.0012 115.109 40.3697 116.782 40.3697C118.456 40.3697 119.813 39.0012 119.813 37.3131V3.40865C119.813 1.7205 118.456 0.351973 116.782 0.351973ZM81.4934 0.351973C79.8197 0.351973 78.463 1.72049 78.463 3.40865V37.3131C78.463 39.0012 79.8197 40.3697 81.4934 40.3697C83.167 40.3697 84.5238 39.0012 84.5238 37.3131V3.40865C84.5238 1.7205 83.167 0.351973 81.4934 0.351973ZM53.7666 3.91859C53.4301 2.06214 54.8436 0.351973 56.7147 0.351973C58.2093 0.351973 59.4754 1.46278 59.6826 2.95581L63.7028 31.9236C63.713 31.9974 63.7756 32.0522 63.8494 32.0522C63.9232 32.0522 63.9857 31.9974 63.996 31.9237L68.0392 2.94374C68.2466 1.45737 69.5075 0.351973 70.9956 0.351973C72.8602 0.351973 74.2685 2.05685 73.9321 3.90674L67.9256 36.9347C67.5638 38.9246 65.8443 40.3697 63.8386 40.3697C61.832 40.3697 60.1121 38.9233 59.7512 36.9324L53.7666 3.91859ZM13.9254 7.60055C13.6136 8.3927 12.3028 8.57136 11.8271 7.84522L7.91232 1.87016C7.51849 1.26907 8.01082 0.517717 8.79852 0.517717H16.6349C17.5878 0.517717 18.0674 1.6106 17.4424 2.2445C15.8957 3.81348 14.6986 5.63665 13.9254 7.60055ZM32.7405 27.6781C33.1686 26.8918 32.3643 25.8727 31.4904 26.0249C29.3241 26.4021 27.0782 26.3452 24.8926 25.8575C24.0096 25.6605 23.2494 26.643 23.716 27.4523L27.5524 34.1073C27.938 34.7762 28.863 34.7988 29.2175 34.1479L32.7405 27.6781ZM41.5982 12.8233L46.534 4.5051L46.6768 4.26445L48.0015 2.03198L48.0916 1.88002C48.1175 1.83645 48.1407 1.79115 48.1554 1.74295C48.2967 1.27909 48.0638 0.788777 47.6377 0.576411C47.5453 0.530346 47.4402 0.517717 47.3363 0.517717H47.0998H44.4459H44.1599H34.4647C28.0529 0.523278 24.0441 7.25931 27.2446 12.655C30.4191 18.007 38.3245 18.0631 41.5982 12.8233ZM25.4198 13.5377C27.7457 17.4186 31.8583 19.3197 35.9348 19.2411C36.762 19.2252 37.3426 20.1098 36.7785 20.6909C31.2018 26.435 20.9827 25.6775 16.6305 18.4183C12.2862 11.1721 16.7076 2.3119 24.659 0.540404C25.4649 0.360864 25.9737 1.28515 25.5464 1.96527C23.445 5.31012 23.1012 9.66886 25.4198 13.5377ZM3.92013 0.826858C4.22203 0.826858 4.501 0.979398 4.65194 1.22701L26.6282 37.2783C26.7791 37.5259 26.7791 37.8308 26.6283 38.0784L25.1048 40.5793C24.7632 41.1402 23.909 41.1402 23.5673 40.5793L0.120252 2.08884C-0.221418 1.52796 0.205666 0.826858 0.889005 0.826858H3.92013Z" fill="#40A2E3"/>
</svg>
