<svg width="20" height="21" viewBox="0 0 20 21" fill="none" xmlns="http://www.w3.org/2000/svg">
<path d="M15 12.1667L15.9596 11.2071C16.3501 10.8166 16.3501 10.1834 15.9596 9.79288L15 8.83332" stroke="#FF4141" stroke-width="1.6" stroke-linecap="round" stroke-linejoin="round"/>
<path d="M15.8333 10.5L10.8333 10.5M3.33331 14.8886V6.55527M13.3333 14.8886C13.3333 15.8091 12.5871 16.5553 11.6666 16.5553H8.33331M13.3333 6.55527C13.3333 5.6348 12.5871 4.88861 11.6666 4.88861H8.33331M4.07548 17.0501L5.74215 18.1612C6.84974 18.8996 8.33331 18.1056 8.33331 16.7744V4.66947C8.33331 3.33831 6.84974 2.54432 5.74215 3.28272L4.07548 4.39383C3.61181 4.70294 3.33331 5.22333 3.33331 5.78058V15.6633C3.33331 16.2206 3.61181 16.7409 4.07548 17.0501Z" stroke="#FF4141" stroke-width="1.6" stroke-linecap="round"/>
</svg>
