<svg width="151" height="33" viewBox="0 0 151 33" fill="none" xmlns="http://www.w3.org/2000/svg">
<path fill-rule="evenodd" clip-rule="evenodd" d="M72.5417 25.9674C72.5417 25.276 72.5794 24.6411 72.655 24.0628C72.6678 23.9775 72.6813 23.8914 72.6956 23.8043C72.8553 22.831 73.7238 22.1581 74.705 22.1581H75.2742C76.134 22.1581 76.831 22.8589 76.831 23.7233C76.831 24.5908 76.8814 25.3577 76.9822 26.024C77.0956 26.6903 77.2719 27.2561 77.5113 27.7212C77.7632 28.1738 78.0907 28.5195 78.4938 28.7584C78.9096 28.9847 79.4134 29.0979 80.0055 29.0979C80.9377 29.0979 81.6495 28.8464 82.1407 28.3435C82.632 27.8281 82.8777 27.0801 82.8777 26.0994C82.8777 25.5966 82.8399 25.1377 82.7643 24.7228C82.7013 24.2954 82.5816 23.8742 82.4053 23.4593C82.2415 23.0444 82.0148 22.6107 81.725 22.1581C81.4353 21.693 81.0637 21.1775 80.6102 20.6118L75.5083 14.5584C74.6013 13.4017 73.9022 12.2388 73.4109 11.0696C72.9196 9.88787 72.6739 8.63067 72.6739 7.29804C72.6739 6.22942 72.8377 5.2488 73.1652 4.35619C73.5053 3.46358 73.9903 2.69669 74.6202 2.05552C75.2501 1.40178 76.0248 0.898897 76.9444 0.546881C77.8766 0.182294 78.9285 0 80.1 0C81.5235 0 82.7076 0.201152 83.6524 0.603455C84.6098 1.00576 85.3719 1.53378 85.9388 2.18753C86.5057 2.84127 86.9025 3.57673 87.1292 4.39391C87.3686 5.19852 87.4883 6.00941 87.4883 6.82659C87.4883 7.51805 87.4316 8.15922 87.3182 8.7501C87.3045 8.82884 87.2904 8.90874 87.276 8.98982C87.1016 9.9702 86.2453 10.6736 85.2548 10.6736H84.6993C83.8602 10.6736 83.18 9.98973 83.18 9.14612C83.18 7.43633 82.9344 6.12884 82.4431 5.22366C81.9518 4.3059 81.1519 3.84703 80.0433 3.84703C79.1237 3.84703 78.4372 4.10475 77.9837 4.6202C77.5302 5.12308 77.3034 5.80197 77.3034 6.65687C77.3034 7.10946 77.3349 7.51805 77.3979 7.88263C77.4735 8.24722 77.5742 8.58667 77.7002 8.90096C77.8388 9.20269 78.0026 9.49813 78.1915 9.78729C78.3805 10.0764 78.5946 10.3782 78.834 10.6925L84.5216 17.5568C85.5546 18.902 86.3482 20.1969 86.9025 21.4415C87.4568 22.6736 87.7339 23.9811 87.7339 25.364C87.7339 26.508 87.5512 27.5389 87.1859 28.4567C86.8332 29.3744 86.323 30.1539 85.6554 30.7951C84.9877 31.4362 84.1815 31.9328 83.2367 32.2849C82.2919 32.6243 81.2274 32.794 80.0433 32.794C78.582 32.794 77.3664 32.5992 76.3964 32.2094C75.439 31.8197 74.6706 31.3042 74.0911 30.6631C73.5242 30.0219 73.1211 29.2927 72.8818 28.4755C72.655 27.6584 72.5417 26.8223 72.5417 25.9674ZM123.957 32.6432C124.549 32.7312 125.097 32.7752 125.601 32.7752C127.818 32.7626 129.519 32.1403 130.703 30.9082C131.887 29.6762 132.479 27.7652 132.479 25.1754V24.4471C132.479 23.2038 131.477 22.1958 130.24 22.1958C129.003 22.1958 128.001 23.2038 128.001 24.4471V25.3451C128.001 25.9863 127.931 26.5457 127.793 27.0235C127.667 27.4886 127.491 27.8784 127.264 28.1927C127.05 28.4944 126.798 28.7207 126.508 28.8716C126.218 29.0098 125.916 29.079 125.601 29.079C125.11 29.079 124.688 28.9973 124.335 28.8338C123.995 28.6578 123.718 28.3687 123.503 27.9664C123.289 27.5641 123.132 27.0298 123.031 26.3634C122.943 25.6971 122.899 24.8611 122.899 23.8553V9.14612C122.899 8.11521 122.956 7.25403 123.069 6.56258C123.195 5.87112 123.371 5.31795 123.598 4.90307C123.825 4.47563 124.108 4.1739 124.448 3.99789C124.788 3.82188 125.185 3.73388 125.639 3.73388C126.395 3.73388 126.968 4.1739 127.358 5.05394C127.749 5.93398 127.944 7.26032 127.944 9.03297C127.944 9.93907 128.675 10.6736 129.576 10.6736H130.122C131.163 10.6736 132.075 9.93624 132.198 8.89776C132.204 8.84809 132.209 8.79887 132.214 8.7501C132.29 8.15922 132.328 7.51805 132.328 6.82659C132.328 5.89626 132.214 5.01622 131.988 4.18647C131.774 3.35672 131.402 2.63383 130.873 2.0178C130.356 1.3892 129.664 0.898897 128.794 0.546881C127.938 0.182294 126.867 0 125.582 0C125.091 0 124.555 0.0377159 123.976 0.113148C123.409 0.18858 122.836 0.352016 122.256 0.603455C121.677 0.842323 121.116 1.19434 120.575 1.6595C120.033 2.12467 119.554 2.75326 119.139 3.5453C118.723 4.32476 118.389 5.2928 118.137 6.44943C117.885 7.59348 117.759 8.9764 117.759 10.5982V22.0073C117.759 23.6165 117.879 25.0057 118.118 26.1749C118.37 27.3315 118.698 28.3058 119.101 29.0979C119.516 29.8899 119.989 30.5311 120.518 31.0214C121.06 31.4991 121.62 31.87 122.2 32.134C122.792 32.398 123.378 32.5677 123.957 32.6432ZM142.703 0.283295C141.07 0.283295 139.67 1.45364 139.372 3.0672L134.463 29.632C134.188 31.1195 135.323 32.4927 136.828 32.4927C138.021 32.4927 139.033 31.6144 139.208 30.4284L139.329 29.6074C139.573 27.9498 140.988 26.7222 142.655 26.7222H142.746C144.417 26.7222 145.838 27.9472 146.094 29.6074L146.223 30.4467C146.404 31.6241 147.412 32.4927 148.597 32.4927C150.1 32.4927 151.234 31.1205 150.959 29.6348L146.033 3.06528C145.734 1.45261 144.334 0.283295 142.703 0.283295ZM144.748 20.6763C144.925 21.9268 143.959 23.0449 142.703 23.0449C141.446 23.0449 140.481 21.9251 140.659 20.6739L142.593 7.10011C142.601 7.04079 142.652 6.99674 142.711 6.99674C142.771 6.99674 142.821 7.04086 142.83 7.10025L144.748 20.6763ZM105.269 6.74256C105.269 5.29986 104.106 4.13032 102.671 4.13032H101.986C100.929 4.13032 100.073 3.26914 100.073 2.20681C100.073 1.14448 100.929 0.283295 101.986 0.283295H113.427C114.484 0.283295 115.341 1.14448 115.341 2.20681C115.341 3.26914 114.484 4.13032 113.427 4.13032H112.752C111.322 4.13032 110.163 5.29561 110.163 6.73306V30.0325C110.163 31.3912 109.067 32.4927 107.716 32.4927C106.365 32.4927 105.269 31.3912 105.269 30.0325V6.74256ZM94.3 0.283295C92.9486 0.283295 91.853 1.38479 91.853 2.74355V30.0325C91.853 31.3912 92.9486 32.4927 94.3 32.4927C95.6515 32.4927 96.7471 31.3912 96.7471 30.0325V2.74355C96.7471 1.38479 95.6515 0.283295 94.3 0.283295ZM65.8048 0.283295C64.4534 0.283295 63.3578 1.38479 63.3578 2.74355V30.0325C63.3578 31.3912 64.4534 32.4927 65.8048 32.4927C67.1563 32.4927 68.2518 31.3912 68.2518 30.0325V2.74355C68.2518 1.38479 67.1563 0.283295 65.8048 0.283295ZM43.4158 3.15399C43.1441 1.65977 44.2855 0.283295 45.7963 0.283295C47.0032 0.283295 48.0256 1.17736 48.1929 2.37907L51.4391 25.6946C51.4474 25.754 51.4979 25.7981 51.5575 25.7981C51.6171 25.7981 51.6676 25.754 51.6759 25.6947L54.9407 2.36935C55.1082 1.173 56.1264 0.283295 57.328 0.283295C58.8336 0.283295 59.9709 1.65551 59.6992 3.14445L54.849 29.7279C54.5568 31.3296 53.1684 32.4927 51.5488 32.4927C49.9286 32.4927 48.5397 31.3285 48.2483 29.7261L43.4158 3.15399ZM11.2446 6.11751C10.9928 6.7551 9.93438 6.8989 9.55022 6.31445L6.38909 1.50525C6.07108 1.02144 6.46863 0.416699 7.10469 0.416699H13.4325C14.2019 0.416699 14.5892 1.29634 14.0845 1.80655C12.8356 3.06939 11.8689 4.53682 11.2446 6.11751ZM26.4375 22.2775C26.7832 21.6446 26.1337 20.8244 25.4281 20.9468C23.6788 21.2505 21.8653 21.2046 20.1005 20.8121C19.3874 20.6536 18.7736 21.4444 19.1503 22.0958L22.2482 27.4522C22.5596 27.9906 23.3065 28.0088 23.5927 27.4849L26.4375 22.2775ZM33.59 10.3212L37.5756 3.62605L37.6909 3.43237L38.7605 1.6355L38.8334 1.51319C38.8542 1.47812 38.873 1.44166 38.8848 1.40286C38.9989 1.02951 38.8109 0.63487 38.4668 0.46394C38.3922 0.426864 38.3074 0.416699 38.2235 0.416699H38.0325H35.8895H35.6585H27.8298C22.6523 0.421175 19.4153 5.84286 21.9996 10.1858C24.5631 14.4935 30.9465 14.5386 33.59 10.3212ZM20.5262 10.8962C22.4043 14.0198 25.7252 15.55 29.0169 15.4868C29.6848 15.4739 30.1536 16.186 29.6981 16.6536C25.1951 21.277 16.9432 20.6673 13.4289 14.8245C9.92095 8.99218 13.4911 1.8608 19.9118 0.43496C20.5626 0.290452 20.9734 1.03439 20.6284 1.5818C18.9315 4.274 18.6539 7.78226 20.5262 10.8962ZM3.16545 0.66552C3.40923 0.66552 3.6345 0.788296 3.75638 0.987596L21.5019 30.0045C21.6238 30.2037 21.6238 30.4492 21.502 30.6484L20.2718 32.6614C19.9959 33.1129 19.3062 33.1129 19.0303 32.6614L0.0971016 1.68126C-0.178792 1.22982 0.166073 0.66552 0.71786 0.66552H3.16545Z" fill="#40A2E3"/>
</svg>
