<svg width="20" height="20" viewBox="0 0 20 20" fill="none" xmlns="http://www.w3.org/2000/svg">
<path fill-rule="evenodd" clip-rule="evenodd" d="M9.54189 1.63313C10.1307 0.859767 9.34705 -0.245762 8.43102 0.0486892C7.36194 0.398344 6.32214 0.943067 5.35744 1.70293C1.76358 4.53837 0.496426 9.66633 2.34327 13.9067C4.80319 19.5424 11.3781 21.633 16.4535 18.6286C17.0836 18.2556 17.6479 17.8271 18.1688 17.3418C18.8841 16.6705 18.3558 15.4257 17.3945 15.5581C15.7238 15.8053 14.0192 15.5327 12.5013 14.7756C10.9834 14.0185 9.72202 12.8117 8.88049 11.3114C7.10138 8.15187 7.48038 4.32848 9.54189 1.63313ZM4.17667 13.1076C2.73772 9.80303 3.65925 5.81511 6.31373 3.50713C5.36859 6.31493 5.57221 9.51141 7.13696 12.2912C8.17169 14.1353 9.72702 15.6268 11.6086 16.5653C12.4613 16.9907 13.3623 17.293 14.2861 17.468C10.4669 18.9606 5.98071 17.2394 4.17667 13.1076Z" fill="#A6A6A6"/>
</svg>
