<svg width="20" height="20" viewBox="0 0 20 20" fill="none" xmlns="http://www.w3.org/2000/svg">
<path d="M11.0825 2.62329L18.2775 15.085C18.3872 15.275 18.445 15.4905 18.445 15.7099C18.445 15.9294 18.3872 16.1449 18.2775 16.3349C18.1678 16.525 18.01 16.6828 17.82 16.7925C17.63 16.9022 17.4144 16.96 17.195 16.96H2.80502C2.5856 16.96 2.37005 16.9022 2.18003 16.7925C1.99001 16.6828 1.83222 16.525 1.72251 16.3349C1.61281 16.1449 1.55505 15.9294 1.55505 15.7099C1.55506 15.4905 1.61281 15.275 1.72252 15.085L8.91752 2.62329C9.39836 1.78996 10.6009 1.78996 11.0825 2.62329ZM10 4.08162L3.52669 15.2933H16.4734L10 4.08162ZM10 12.5C10.221 12.5 10.433 12.5878 10.5893 12.744C10.7456 12.9003 10.8334 13.1123 10.8334 13.3333C10.8334 13.5543 10.7456 13.7663 10.5893 13.9225C10.433 14.0788 10.221 14.1666 10 14.1666C9.77901 14.1666 9.56705 14.0788 9.41077 13.9225C9.25449 13.7663 9.16669 13.5543 9.16669 13.3333C9.16669 13.1123 9.25449 12.9003 9.41077 12.744C9.56705 12.5878 9.77901 12.5 10 12.5ZM10 6.66662C10.221 6.66662 10.433 6.75442 10.5893 6.9107C10.7456 7.06698 10.8334 7.27894 10.8334 7.49996V10.8333C10.8334 11.0543 10.7456 11.2663 10.5893 11.4225C10.433 11.5788 10.221 11.6666 10 11.6666C9.77901 11.6666 9.56705 11.5788 9.41077 11.4225C9.25449 11.2663 9.16669 11.0543 9.16669 10.8333V7.49996C9.16669 7.27894 9.25449 7.06698 9.41077 6.9107C9.56705 6.75442 9.77901 6.66662 10 6.66662Z" fill="#292D32"/>
</svg>
