<svg width="20" height="20" viewBox="0 0 20 20" fill="none" xmlns="http://www.w3.org/2000/svg">
<path d="M18 10.4983C18.0025 11.9872 17.5596 13.4429 16.7283 14.6783C16.0428 15.7007 15.1159 16.5385 14.0296 17.1176C12.9433 17.6966 11.731 17.9991 10.5 17.9983C9.26899 17.9991 8.05674 17.6966 6.97042 17.1176C5.88411 16.5385 4.9572 15.7007 4.27167 14.6783C3.61894 13.7053 3.20325 12.5929 3.05792 11.4303C2.91259 10.2677 3.04166 9.08722 3.43479 7.9835C3.82792 6.87977 4.47416 5.88351 5.32172 5.07456C6.16928 4.26561 7.19458 3.66648 8.31542 3.32521C9.43627 2.98394 10.6215 2.91001 11.776 3.10935C12.9306 3.30869 14.0224 3.77576 14.9639 4.47311C15.9054 5.17046 16.6705 6.0787 17.1977 7.12501C17.725 8.17133 17.9997 9.32661 18 10.4983Z" stroke="white" stroke-width="1.5"/>
<path d="M11.5417 7.99827C11.5417 8.57327 11.075 9.03994 10.5 9.03994V10.2899C11.1078 10.2899 11.6907 10.0485 12.1205 9.61872C12.5502 9.18895 12.7917 8.60606 12.7917 7.99827H11.5417ZM10.5 9.03994C9.925 9.03994 9.45834 8.57327 9.45834 7.99827H8.20834C8.20834 8.60606 8.44978 9.18895 8.87955 9.61872C9.30932 10.0485 9.89222 10.2899 10.5 10.2899V9.03994ZM9.45834 7.99827C9.45834 7.42327 9.925 6.9566 10.5 6.9566V5.7066C9.89222 5.7066 9.30932 5.94805 8.87955 6.37782C8.44978 6.80759 8.20834 7.39048 8.20834 7.99827H9.45834ZM10.5 6.9566C11.075 6.9566 11.5417 7.42327 11.5417 7.99827H12.7917C12.7917 7.39048 12.5502 6.80759 12.1205 6.37782C11.6907 5.94805 11.1078 5.7066 10.5 5.7066V6.9566ZM4.805 15.3783L4.20584 15.1999L4.10834 15.5266L4.33084 15.7849L4.805 15.3783ZM16.195 15.3783L16.67 15.7858L16.8917 15.5274L16.7942 15.1999L16.195 15.3783ZM8 13.6233H13V12.3733H8V13.6233ZM8 12.3733C7.14759 12.3733 6.31793 12.6484 5.63436 13.1577C4.95079 13.6669 4.4498 14.3832 4.20584 15.1999L5.40417 15.5566C5.57128 14.998 5.91412 14.5081 6.38176 14.1598C6.8494 13.8115 7.41691 13.6234 8 13.6233V12.3733ZM10.5 17.3733C9.50785 17.3744 8.52726 17.1603 7.62591 16.7456C6.72455 16.331 5.92389 15.7257 5.27917 14.9716L4.33084 15.7849C5.09289 16.6758 6.03904 17.3916 7.10408 17.8814C8.16912 18.3713 9.32771 18.6244 10.5 18.6233V17.3733ZM13 13.6233C14.225 13.6233 15.2625 14.4383 15.5958 15.5566L16.7942 15.1999C16.5502 14.3832 16.0492 13.6669 15.3656 13.1577C14.6821 12.6484 13.8524 12.3733 13 12.3733V13.6233ZM15.7208 14.9716C15.0761 15.7257 14.2755 16.331 13.3741 16.7456C12.4727 17.1603 11.4922 17.3744 10.5 17.3733V18.6233C11.6723 18.6244 12.8309 18.3713 13.8959 17.8814C14.961 17.3916 15.908 16.6766 16.67 15.7858L15.7208 14.9716Z" fill="white"/>
</svg>
