<svg width="24" height="24" viewBox="0 0 24 24" fill="none" xmlns="http://www.w3.org/2000/svg">
<path fill-rule="evenodd" clip-rule="evenodd" d="M8.90912 7.63636C8.90912 6.18065 10.0898 5 11.5455 5C13.0012 5 14.1818 6.18065 14.1818 7.63636C14.1818 8.39164 13.866 9.26967 13.3295 9.95443C12.79 10.643 12.143 11 11.5455 11C10.948 11 10.301 10.643 9.76145 9.95443C9.22493 9.26967 8.90912 8.39164 8.90912 7.63636ZM11.5455 3C8.9852 3 6.90912 5.07608 6.90912 7.63636C6.90912 8.88909 7.40749 10.1929 8.18715 11.1879C8.9638 12.1792 10.135 13 11.5455 13C12.956 13 14.1272 12.1792 14.9038 11.1879C15.6835 10.1929 16.1818 8.88909 16.1818 7.63636C16.1818 5.07608 14.1058 3 11.5455 3ZM9.36364 14C6.40117 14 4 16.4012 4 19.3636V20.0909C4 20.5258 4.28104 20.9108 4.69522 21.0433L5 20.0909C4.69522 21.0433 4.69607 21.0436 4.69634 21.0437L4.69767 21.0441L4.70096 21.0452L4.71004 21.048L4.73823 21.0566C4.76146 21.0636 4.79357 21.073 4.83448 21.0846C4.91632 21.1077 5.03338 21.1391 5.18515 21.1761C5.48868 21.2501 5.93097 21.3461 6.50771 21.4412C7.66132 21.6315 9.35214 21.8182 11.5455 21.8182C13.7388 21.8182 15.4296 21.6315 16.5832 21.4412C17.1599 21.3461 17.6022 21.2501 17.9058 21.1761C18.0575 21.1391 18.1746 21.1077 18.2564 21.0846C18.2973 21.073 18.3294 21.0636 18.3527 21.0566L18.3809 21.048L18.3899 21.0452L18.3932 21.0441L18.3957 21.0433C18.396 21.0432 18.3957 21.0433 18.0909 20.0909L18.3957 21.0433C18.8099 20.9108 19.0909 20.5258 19.0909 20.0909V19.3636C19.0909 16.4012 16.6897 14 13.7273 14H9.36364ZM6.8332 19.4679C6.50286 19.4134 6.22491 19.3592 6.0004 19.311C6.0285 17.4774 7.5233 16 9.36364 16H13.7273C15.5676 16 17.0624 17.4774 17.0905 19.311C16.866 19.3592 16.588 19.4134 16.2577 19.4679C15.2068 19.6412 13.6249 19.8182 11.5455 19.8182C9.46604 19.8182 7.88413 19.6412 6.8332 19.4679Z" fill="#A6A6A6"/>
</svg>
